<?xml version="1.0" encoding="utf-8" standalone="no"?>
<!DOCTYPE svg PUBLIC "-//W3C//DTD SVG 1.1//EN"
  "http://www.w3.org/Graphics/SVG/1.1/DTD/svg11.dtd">
<!-- Created with matplotlib (https://matplotlib.org/) -->
<svg height="345.6pt" version="1.1" viewBox="0 0 460.8 345.6" width="460.8pt" xmlns="http://www.w3.org/2000/svg" xmlns:xlink="http://www.w3.org/1999/xlink">
 <defs>
  <style type="text/css">
*{stroke-linecap:butt;stroke-linejoin:round;}
  </style>
 </defs>
 <g id="figure_1">
  <g id="patch_1">
   <path d="M 0 345.6 
L 460.8 345.6 
L 460.8 0 
L 0 0 
z
" style="fill:#ffffff;"/>
  </g>
  <g id="axes_1">
   <g id="patch_2">
    <path d="M 53.74375 304.44375 
L 450 304.44375 
L 450 27.96 
L 53.74375 27.96 
z
" style="fill:#ffffff;"/>
   </g>
   <g id="PathCollection_1">
    <defs>
     <path d="M 0 3 
C 0.795609 3 1.55874 2.683901 2.12132 2.12132 
C 2.683901 1.55874 3 0.795609 3 0 
C 3 -0.795609 2.683901 -1.55874 2.12132 -2.12132 
C 1.55874 -2.683901 0.795609 -3 0 -3 
C -0.795609 -3 -1.55874 -2.683901 -2.12132 -2.12132 
C -2.683901 -1.55874 -3 -0.795609 -3 0 
C -3 0.795609 -2.683901 1.55874 -2.12132 2.12132 
C -1.55874 2.683901 -0.795609 3 0 3 
z
" id="C0_0_1d3d4001e0"/>
    </defs>
    <g clip-path="url(#p9770203af3)">
     <use style="fill:#93c4d2;stroke:#ffffff;stroke-width:0.48;" x="287.89517" xlink:href="#C0_0_1d3d4001e0" y="137.382001"/>
    </g>
    <g clip-path="url(#p9770203af3)">
     <use style="fill:#93c4d2;stroke:#ffffff;stroke-width:0.48;" x="287.89517" xlink:href="#C0_0_1d3d4001e0" y="122.693776"/>
    </g>
    <g clip-path="url(#p9770203af3)">
     <use style="fill:#93c4d2;stroke:#ffffff;stroke-width:0.48;" x="215.84858" xlink:href="#C0_0_1d3d4001e0" y="250.166585"/>
    </g>
    <g clip-path="url(#p9770203af3)">
     <use style="fill:#93c4d2;stroke:#ffffff;stroke-width:0.48;" x="379.590832" xlink:href="#C0_0_1d3d4001e0" y="67.917384"/>
    </g>
    <g clip-path="url(#p9770203af3)">
     <use style="fill:#93c4d2;stroke:#ffffff;stroke-width:0.48;" x="359.941761" xlink:href="#C0_0_1d3d4001e0" y="67.81394"/>
    </g>
    <g clip-path="url(#p9770203af3)">
     <use style="fill:#93c4d2;stroke:#ffffff;stroke-width:0.48;" x="294.444861" xlink:href="#C0_0_1d3d4001e0" y="123.418196"/>
    </g>
    <g clip-path="url(#p9770203af3)">
     <use style="fill:#93c4d2;stroke:#ffffff;stroke-width:0.48;" x="209.298889" xlink:href="#C0_0_1d3d4001e0" y="175.146975"/>
    </g>
    <g clip-path="url(#p9770203af3)">
     <use style="fill:#93c4d2;stroke:#ffffff;stroke-width:0.48;" x="176.550439" xlink:href="#C0_0_1d3d4001e0" y="195.452635"/>
    </g>
    <g clip-path="url(#p9770203af3)">
     <use style="fill:#93c4d2;stroke:#ffffff;stroke-width:0.48;" x="314.093931" xlink:href="#C0_0_1d3d4001e0" y="178.946506"/>
    </g>
    <g clip-path="url(#p9770203af3)">
     <use style="fill:#93c4d2;stroke:#ffffff;stroke-width:0.48;" x="228.94796" xlink:href="#C0_0_1d3d4001e0" y="193.58442"/>
    </g>
    <g clip-path="url(#p9770203af3)">
     <use style="fill:#93c4d2;stroke:#ffffff;stroke-width:0.48;" x="176.550439" xlink:href="#C0_0_1d3d4001e0" y="174.036991"/>
    </g>
    <g clip-path="url(#p9770203af3)">
     <use style="fill:#93c4d2;stroke:#ffffff;stroke-width:0.48;" x="314.093931" xlink:href="#C0_0_1d3d4001e0" y="113.541357"/>
    </g>
    <g clip-path="url(#p9770203af3)">
     <use style="fill:#93c4d2;stroke:#ffffff;stroke-width:0.48;" x="71.755398" xlink:href="#C0_0_1d3d4001e0" y="269.79576"/>
    </g>
    <g clip-path="url(#p9770203af3)">
     <use style="fill:#93c4d2;stroke:#ffffff;stroke-width:0.48;" x="242.04734" xlink:href="#C0_0_1d3d4001e0" y="170.596879"/>
    </g>
    <g clip-path="url(#p9770203af3)">
     <use style="fill:#93c4d2;stroke:#ffffff;stroke-width:0.48;" x="202.749199" xlink:href="#C0_0_1d3d4001e0" y="215.609692"/>
    </g>
    <g clip-path="url(#p9770203af3)">
     <use style="fill:#93c4d2;stroke:#ffffff;stroke-width:0.48;" x="346.842381" xlink:href="#C0_0_1d3d4001e0" y="92.268168"/>
    </g>
    <g clip-path="url(#p9770203af3)">
     <use style="fill:#93c4d2;stroke:#ffffff;stroke-width:0.48;" x="294.444861" xlink:href="#C0_0_1d3d4001e0" y="149.649798"/>
    </g>
    <g clip-path="url(#p9770203af3)">
     <use style="fill:#93c4d2;stroke:#ffffff;stroke-width:0.48;" x="300.994551" xlink:href="#C0_0_1d3d4001e0" y="139.719505"/>
    </g>
    <g clip-path="url(#p9770203af3)">
     <use style="fill:#93c4d2;stroke:#ffffff;stroke-width:0.48;" x="300.994551" xlink:href="#C0_0_1d3d4001e0" y="167.028235"/>
    </g>
    <g clip-path="url(#p9770203af3)">
     <use style="fill:#93c4d2;stroke:#ffffff;stroke-width:0.48;" x="170.000749" xlink:href="#C0_0_1d3d4001e0" y="210.839242"/>
    </g>
    <g clip-path="url(#p9770203af3)">
     <use style="fill:#93c4d2;stroke:#ffffff;stroke-width:0.48;" x="431.988352" xlink:href="#C0_0_1d3d4001e0" y="40.527443"/>
    </g>
    <g clip-path="url(#p9770203af3)">
     <use style="fill:#93c4d2;stroke:#ffffff;stroke-width:0.48;" x="307.544241" xlink:href="#C0_0_1d3d4001e0" y="108.570986"/>
    </g>
    <g clip-path="url(#p9770203af3)">
     <use style="fill:#93c4d2;stroke:#ffffff;stroke-width:0.48;" x="294.444861" xlink:href="#C0_0_1d3d4001e0" y="125.814352"/>
    </g>
    <g clip-path="url(#p9770203af3)">
     <use style="fill:#93c4d2;stroke:#ffffff;stroke-width:0.48;" x="268.2461" xlink:href="#C0_0_1d3d4001e0" y="131.913658"/>
    </g>
    <g clip-path="url(#p9770203af3)">
     <use style="fill:#93c4d2;stroke:#ffffff;stroke-width:0.48;" x="202.749199" xlink:href="#C0_0_1d3d4001e0" y="205.568759"/>
    </g>
    <g clip-path="url(#p9770203af3)">
     <use style="fill:#93c4d2;stroke:#ffffff;stroke-width:0.48;" x="183.100129" xlink:href="#C0_0_1d3d4001e0" y="223.313113"/>
    </g>
    <g clip-path="url(#p9770203af3)">
     <use style="fill:#93c4d2;stroke:#ffffff;stroke-width:0.48;" x="274.79579" xlink:href="#C0_0_1d3d4001e0" y="150.848817"/>
    </g>
    <g clip-path="url(#p9770203af3)">
     <use style="fill:#93c4d2;stroke:#ffffff;stroke-width:0.48;" x="215.84858" xlink:href="#C0_0_1d3d4001e0" y="198.054896"/>
    </g>
    <g clip-path="url(#p9770203af3)">
     <use style="fill:#93c4d2;stroke:#ffffff;stroke-width:0.48;" x="196.199509" xlink:href="#C0_0_1d3d4001e0" y="199.743145"/>
    </g>
    <g clip-path="url(#p9770203af3)">
     <use style="fill:#93c4d2;stroke:#ffffff;stroke-width:0.48;" x="242.04734" xlink:href="#C0_0_1d3d4001e0" y="167.747081"/>
    </g>
    <g clip-path="url(#p9770203af3)">
     <use style="fill:#93c4d2;stroke:#ffffff;stroke-width:0.48;" x="346.842381" xlink:href="#C0_0_1d3d4001e0" y="78.003201"/>
    </g>
    <g clip-path="url(#p9770203af3)">
     <use style="fill:#93c4d2;stroke:#ffffff;stroke-width:0.48;" x="150.351679" xlink:href="#C0_0_1d3d4001e0" y="211.906328"/>
    </g>
    <g clip-path="url(#p9770203af3)">
     <use style="fill:#93c4d2;stroke:#ffffff;stroke-width:0.48;" x="189.649819" xlink:href="#C0_0_1d3d4001e0" y="223.098285"/>
    </g>
    <g clip-path="url(#p9770203af3)">
     <use style="fill:#93c4d2;stroke:#ffffff;stroke-width:0.48;" x="183.100129" xlink:href="#C0_0_1d3d4001e0" y="216.567313"/>
    </g>
    <g clip-path="url(#p9770203af3)">
     <use style="fill:#93c4d2;stroke:#ffffff;stroke-width:0.48;" x="300.994551" xlink:href="#C0_0_1d3d4001e0" y="112.551907"/>
    </g>
    <g clip-path="url(#p9770203af3)">
     <use style="fill:#93c4d2;stroke:#ffffff;stroke-width:0.48;" x="281.34548" xlink:href="#C0_0_1d3d4001e0" y="126.590884"/>
    </g>
    <g clip-path="url(#p9770203af3)">
     <use style="fill:#93c4d2;stroke:#ffffff;stroke-width:0.48;" x="307.544241" xlink:href="#C0_0_1d3d4001e0" y="115.331169"/>
    </g>
    <g clip-path="url(#p9770203af3)">
     <use style="fill:#93c4d2;stroke:#ffffff;stroke-width:0.48;" x="124.152918" xlink:href="#C0_0_1d3d4001e0" y="254.777276"/>
    </g>
    <g clip-path="url(#p9770203af3)">
     <use style="fill:#93c4d2;stroke:#ffffff;stroke-width:0.48;" x="183.100129" xlink:href="#C0_0_1d3d4001e0" y="230.3301"/>
    </g>
    <g clip-path="url(#p9770203af3)">
     <use style="fill:#93c4d2;stroke:#ffffff;stroke-width:0.48;" x="248.59703" xlink:href="#C0_0_1d3d4001e0" y="172.545354"/>
    </g>
    <g clip-path="url(#p9770203af3)">
     <use style="fill:#93c4d2;stroke:#ffffff;stroke-width:0.48;" x="268.2461" xlink:href="#C0_0_1d3d4001e0" y="149.426957"/>
    </g>
    <g clip-path="url(#p9770203af3)">
     <use style="fill:#93c4d2;stroke:#ffffff;stroke-width:0.48;" x="314.093931" xlink:href="#C0_0_1d3d4001e0" y="106.735953"/>
    </g>
    <g clip-path="url(#p9770203af3)">
     <use style="fill:#93c4d2;stroke:#ffffff;stroke-width:0.48;" x="235.49765" xlink:href="#C0_0_1d3d4001e0" y="147.981433"/>
    </g>
    <g clip-path="url(#p9770203af3)">
     <use style="fill:#93c4d2;stroke:#ffffff;stroke-width:0.48;" x="111.053538" xlink:href="#C0_0_1d3d4001e0" y="265.062662"/>
    </g>
    <g clip-path="url(#p9770203af3)">
     <use style="fill:#93c4d2;stroke:#ffffff;stroke-width:0.48;" x="196.199509" xlink:href="#C0_0_1d3d4001e0" y="185.0135"/>
    </g>
    <g clip-path="url(#p9770203af3)">
     <use style="fill:#93c4d2;stroke:#ffffff;stroke-width:0.48;" x="248.59703" xlink:href="#C0_0_1d3d4001e0" y="145.547401"/>
    </g>
    <g clip-path="url(#p9770203af3)">
     <use style="fill:#93c4d2;stroke:#ffffff;stroke-width:0.48;" x="163.451059" xlink:href="#C0_0_1d3d4001e0" y="227.251622"/>
    </g>
    <g clip-path="url(#p9770203af3)">
     <use style="fill:#93c4d2;stroke:#ffffff;stroke-width:0.48;" x="202.749199" xlink:href="#C0_0_1d3d4001e0" y="202.351761"/>
    </g>
    <g clip-path="url(#p9770203af3)">
     <use style="fill:#93c4d2;stroke:#ffffff;stroke-width:0.48;" x="307.544241" xlink:href="#C0_0_1d3d4001e0" y="165.796722"/>
    </g>
    <g clip-path="url(#p9770203af3)">
     <use style="fill:#93c4d2;stroke:#ffffff;stroke-width:0.48;" x="228.94796" xlink:href="#C0_0_1d3d4001e0" y="190.390756"/>
    </g>
    <g clip-path="url(#p9770203af3)">
     <use style="fill:#93c4d2;stroke:#ffffff;stroke-width:0.48;" x="150.351679" xlink:href="#C0_0_1d3d4001e0" y="227.540048"/>
    </g>
    <g clip-path="url(#p9770203af3)">
     <use style="fill:#93c4d2;stroke:#ffffff;stroke-width:0.48;" x="248.59703" xlink:href="#C0_0_1d3d4001e0" y="161.126124"/>
    </g>
    <g clip-path="url(#p9770203af3)">
     <use style="fill:#93c4d2;stroke:#ffffff;stroke-width:0.48;" x="255.14672" xlink:href="#C0_0_1d3d4001e0" y="157.263899"/>
    </g>
    <g clip-path="url(#p9770203af3)">
     <use style="fill:#93c4d2;stroke:#ffffff;stroke-width:0.48;" x="228.94796" xlink:href="#C0_0_1d3d4001e0" y="203.564622"/>
    </g>
    <g clip-path="url(#p9770203af3)">
     <use style="fill:#93c4d2;stroke:#ffffff;stroke-width:0.48;" x="202.749199" xlink:href="#C0_0_1d3d4001e0" y="190.085078"/>
    </g>
    <g clip-path="url(#p9770203af3)">
     <use style="fill:#93c4d2;stroke:#ffffff;stroke-width:0.48;" x="163.451059" xlink:href="#C0_0_1d3d4001e0" y="217.445132"/>
    </g>
    <g clip-path="url(#p9770203af3)">
     <use style="fill:#93c4d2;stroke:#ffffff;stroke-width:0.48;" x="183.100129" xlink:href="#C0_0_1d3d4001e0" y="197.808445"/>
    </g>
    <g clip-path="url(#p9770203af3)">
     <use style="fill:#93c4d2;stroke:#ffffff;stroke-width:0.48;" x="150.351679" xlink:href="#C0_0_1d3d4001e0" y="230.842124"/>
    </g>
    <g clip-path="url(#p9770203af3)">
     <use style="fill:#93c4d2;stroke:#ffffff;stroke-width:0.48;" x="268.2461" xlink:href="#C0_0_1d3d4001e0" y="136.6858"/>
    </g>
    <g clip-path="url(#p9770203af3)">
     <use style="fill:#93c4d2;stroke:#ffffff;stroke-width:0.48;" x="281.34548" xlink:href="#C0_0_1d3d4001e0" y="144.082075"/>
    </g>
    <g clip-path="url(#p9770203af3)">
     <use style="fill:#93c4d2;stroke:#ffffff;stroke-width:0.48;" x="268.2461" xlink:href="#C0_0_1d3d4001e0" y="154.87664"/>
    </g>
    <g clip-path="url(#p9770203af3)">
     <use style="fill:#93c4d2;stroke:#ffffff;stroke-width:0.48;" x="176.550439" xlink:href="#C0_0_1d3d4001e0" y="216.868279"/>
    </g>
    <g clip-path="url(#p9770203af3)">
     <use style="fill:#93c4d2;stroke:#ffffff;stroke-width:0.48;" x="183.100129" xlink:href="#C0_0_1d3d4001e0" y="223.313113"/>
    </g>
    <g clip-path="url(#p9770203af3)">
     <use style="fill:#93c4d2;stroke:#ffffff;stroke-width:0.48;" x="215.84858" xlink:href="#C0_0_1d3d4001e0" y="188.713446"/>
    </g>
    <g clip-path="url(#p9770203af3)">
     <use style="fill:#93c4d2;stroke:#ffffff;stroke-width:0.48;" x="255.14672" xlink:href="#C0_0_1d3d4001e0" y="162.813819"/>
    </g>
    <g clip-path="url(#p9770203af3)">
     <use style="fill:#93c4d2;stroke:#ffffff;stroke-width:0.48;" x="248.59703" xlink:href="#C0_0_1d3d4001e0" y="148.025295"/>
    </g>
    <g clip-path="url(#p9770203af3)">
     <use style="fill:#93c4d2;stroke:#ffffff;stroke-width:0.48;" x="300.994551" xlink:href="#C0_0_1d3d4001e0" y="112.551907"/>
    </g>
    <g clip-path="url(#p9770203af3)">
     <use style="fill:#93c4d2;stroke:#ffffff;stroke-width:0.48;" x="176.550439" xlink:href="#C0_0_1d3d4001e0" y="220.162994"/>
    </g>
    <g clip-path="url(#p9770203af3)">
     <use style="fill:#93c4d2;stroke:#ffffff;stroke-width:0.48;" x="196.199509" xlink:href="#C0_0_1d3d4001e0" y="202.858219"/>
    </g>
    <g clip-path="url(#p9770203af3)">
     <use style="fill:#93c4d2;stroke:#ffffff;stroke-width:0.48;" x="156.901369" xlink:href="#C0_0_1d3d4001e0" y="217.721705"/>
    </g>
    <g clip-path="url(#p9770203af3)">
     <use style="fill:#93c4d2;stroke:#ffffff;stroke-width:0.48;" x="163.451059" xlink:href="#C0_0_1d3d4001e0" y="223.921116"/>
    </g>
    <g clip-path="url(#p9770203af3)">
     <use style="fill:#93c4d2;stroke:#ffffff;stroke-width:0.48;" x="274.79579" xlink:href="#C0_0_1d3d4001e0" y="145.451142"/>
    </g>
    <g clip-path="url(#p9770203af3)">
     <use style="fill:#93c4d2;stroke:#ffffff;stroke-width:0.48;" x="353.392071" xlink:href="#C0_0_1d3d4001e0" y="83.675056"/>
    </g>
    <g clip-path="url(#p9770203af3)">
     <use style="fill:#93c4d2;stroke:#ffffff;stroke-width:0.48;" x="130.702608" xlink:href="#C0_0_1d3d4001e0" y="240.98443"/>
    </g>
    <g clip-path="url(#p9770203af3)">
     <use style="fill:#93c4d2;stroke:#ffffff;stroke-width:0.48;" x="143.801989" xlink:href="#C0_0_1d3d4001e0" y="251.817091"/>
    </g>
    <g clip-path="url(#p9770203af3)">
     <use style="fill:#93c4d2;stroke:#ffffff;stroke-width:0.48;" x="228.94796" xlink:href="#C0_0_1d3d4001e0" y="181.18184"/>
    </g>
    <g clip-path="url(#p9770203af3)">
     <use style="fill:#93c4d2;stroke:#ffffff;stroke-width:0.48;" x="222.39827" xlink:href="#C0_0_1d3d4001e0" y="184.965835"/>
    </g>
    <g clip-path="url(#p9770203af3)">
     <use style="fill:#93c4d2;stroke:#ffffff;stroke-width:0.48;" x="196.199509" xlink:href="#C0_0_1d3d4001e0" y="219.372804"/>
    </g>
    <g clip-path="url(#p9770203af3)">
     <use style="fill:#93c4d2;stroke:#ffffff;stroke-width:0.48;" x="307.544241" xlink:href="#C0_0_1d3d4001e0" y="110.781863"/>
    </g>
    <g clip-path="url(#p9770203af3)">
     <use style="fill:#93c4d2;stroke:#ffffff;stroke-width:0.48;" x="189.649819" xlink:href="#C0_0_1d3d4001e0" y="191.381893"/>
    </g>
    <g clip-path="url(#p9770203af3)">
     <use style="fill:#93c4d2;stroke:#ffffff;stroke-width:0.48;" x="209.298889" xlink:href="#C0_0_1d3d4001e0" y="186.449473"/>
    </g>
    <g clip-path="url(#p9770203af3)">
     <use style="fill:#93c4d2;stroke:#ffffff;stroke-width:0.48;" x="287.89517" xlink:href="#C0_0_1d3d4001e0" y="142.67173"/>
    </g>
    <g clip-path="url(#p9770203af3)">
     <use style="fill:#93c4d2;stroke:#ffffff;stroke-width:0.48;" x="183.100129" xlink:href="#C0_0_1d3d4001e0" y="203.828733"/>
    </g>
    <g clip-path="url(#p9770203af3)">
     <use style="fill:#93c4d2;stroke:#ffffff;stroke-width:0.48;" x="261.69641" xlink:href="#C0_0_1d3d4001e0" y="161.697086"/>
    </g>
    <g clip-path="url(#p9770203af3)">
     <use style="fill:#93c4d2;stroke:#ffffff;stroke-width:0.48;" x="314.093931" xlink:href="#C0_0_1d3d4001e0" y="108.961006"/>
    </g>
    <g clip-path="url(#p9770203af3)">
     <use style="fill:#93c4d2;stroke:#ffffff;stroke-width:0.48;" x="248.59703" xlink:href="#C0_0_1d3d4001e0" y="169.606168"/>
    </g>
    <g clip-path="url(#p9770203af3)">
     <use style="fill:#93c4d2;stroke:#ffffff;stroke-width:0.48;" x="235.49765" xlink:href="#C0_0_1d3d4001e0" y="168.740748"/>
    </g>
    <g clip-path="url(#p9770203af3)">
     <use style="fill:#93c4d2;stroke:#ffffff;stroke-width:0.48;" x="228.94796" xlink:href="#C0_0_1d3d4001e0" y="172.494183"/>
    </g>
    <g clip-path="url(#p9770203af3)">
     <use style="fill:#93c4d2;stroke:#ffffff;stroke-width:0.48;" x="261.69641" xlink:href="#C0_0_1d3d4001e0" y="145.501079"/>
    </g>
    <g clip-path="url(#p9770203af3)">
     <use style="fill:#93c4d2;stroke:#ffffff;stroke-width:0.48;" x="242.04734" xlink:href="#C0_0_1d3d4001e0" y="146.780716"/>
    </g>
    <g clip-path="url(#p9770203af3)">
     <use style="fill:#93c4d2;stroke:#ffffff;stroke-width:0.48;" x="314.093931" xlink:href="#C0_0_1d3d4001e0" y="106.735953"/>
    </g>
    <g clip-path="url(#p9770203af3)">
     <use style="fill:#93c4d2;stroke:#ffffff;stroke-width:0.48;" x="196.199509" xlink:href="#C0_0_1d3d4001e0" y="196.686571"/>
    </g>
    <g clip-path="url(#p9770203af3)">
     <use style="fill:#93c4d2;stroke:#ffffff;stroke-width:0.48;" x="156.901369" xlink:href="#C0_0_1d3d4001e0" y="234.15729"/>
    </g>
    <g clip-path="url(#p9770203af3)">
     <use style="fill:#93c4d2;stroke:#ffffff;stroke-width:0.48;" x="104.503848" xlink:href="#C0_0_1d3d4001e0" y="291.876307"/>
    </g>
    <g clip-path="url(#p9770203af3)">
     <use style="fill:#93c4d2;stroke:#ffffff;stroke-width:0.48;" x="242.04734" xlink:href="#C0_0_1d3d4001e0" y="159.517293"/>
    </g>
    <g clip-path="url(#p9770203af3)">
     <use style="fill:#93c4d2;stroke:#ffffff;stroke-width:0.48;" x="215.84858" xlink:href="#C0_0_1d3d4001e0" y="188.713446"/>
    </g>
    <g clip-path="url(#p9770203af3)">
     <use style="fill:#93c4d2;stroke:#ffffff;stroke-width:0.48;" x="183.100129" xlink:href="#C0_0_1d3d4001e0" y="200.790846"/>
    </g>
    <g clip-path="url(#p9770203af3)">
     <use style="fill:#93c4d2;stroke:#ffffff;stroke-width:0.48;" x="202.749199" xlink:href="#C0_0_1d3d4001e0" y="193.064956"/>
    </g>
    <g clip-path="url(#p9770203af3)">
     <use style="fill:#93c4d2;stroke:#ffffff;stroke-width:0.48;" x="170.000749" xlink:href="#C0_0_1d3d4001e0" y="227.101139"/>
    </g>
    <g clip-path="url(#p9770203af3)">
     <use style="fill:#93c4d2;stroke:#ffffff;stroke-width:0.48;" x="274.79579" xlink:href="#C0_0_1d3d4001e0" y="132.835646"/>
    </g>
    <g clip-path="url(#p9770203af3)">
     <use style="fill:#93c4d2;stroke:#ffffff;stroke-width:0.48;" x="242.04734" xlink:href="#C0_0_1d3d4001e0" y="179.488246"/>
    </g>
    <g clip-path="url(#p9770203af3)">
     <use style="fill:#93c4d2;stroke:#ffffff;stroke-width:0.48;" x="150.351679" xlink:href="#C0_0_1d3d4001e0" y="237.634965"/>
    </g>
    <g clip-path="url(#p9770203af3)">
     <use style="fill:#93c4d2;stroke:#ffffff;stroke-width:0.48;" x="379.590832" xlink:href="#C0_0_1d3d4001e0" y="65.970657"/>
    </g>
    <g clip-path="url(#p9770203af3)">
     <use style="fill:#93c4d2;stroke:#ffffff;stroke-width:0.48;" x="242.04734" xlink:href="#C0_0_1d3d4001e0" y="170.596879"/>
    </g>
    <g clip-path="url(#p9770203af3)">
     <use style="fill:#93c4d2;stroke:#ffffff;stroke-width:0.48;" x="189.649819" xlink:href="#C0_0_1d3d4001e0" y="206.484937"/>
    </g>
    <g clip-path="url(#p9770203af3)">
     <use style="fill:#93c4d2;stroke:#ffffff;stroke-width:0.48;" x="268.2461" xlink:href="#C0_0_1d3d4001e0" y="166.450193"/>
    </g>
    <g clip-path="url(#p9770203af3)">
     <use style="fill:#93c4d2;stroke:#ffffff;stroke-width:0.48;" x="196.199509" xlink:href="#C0_0_1d3d4001e0" y="193.686863"/>
    </g>
    <g clip-path="url(#p9770203af3)">
     <use style="fill:#93c4d2;stroke:#ffffff;stroke-width:0.48;" x="215.84858" xlink:href="#C0_0_1d3d4001e0" y="207.968271"/>
    </g>
    <g clip-path="url(#p9770203af3)">
     <use style="fill:#93c4d2;stroke:#ffffff;stroke-width:0.48;" x="346.842381" xlink:href="#C0_0_1d3d4001e0" y="92.268168"/>
    </g>
    <g clip-path="url(#p9770203af3)">
     <use style="fill:#93c4d2;stroke:#ffffff;stroke-width:0.48;" x="189.649819" xlink:href="#C0_0_1d3d4001e0" y="216.257494"/>
    </g>
    <g clip-path="url(#p9770203af3)">
     <use style="fill:#93c4d2;stroke:#ffffff;stroke-width:0.48;" x="189.649819" xlink:href="#C0_0_1d3d4001e0" y="216.257494"/>
    </g>
    <g clip-path="url(#p9770203af3)">
     <use style="fill:#93c4d2;stroke:#ffffff;stroke-width:0.48;" x="183.100129" xlink:href="#C0_0_1d3d4001e0" y="219.907306"/>
    </g>
    <g clip-path="url(#p9770203af3)">
     <use style="fill:#93c4d2;stroke:#ffffff;stroke-width:0.48;" x="327.193311" xlink:href="#C0_0_1d3d4001e0" y="107.455743"/>
    </g>
    <g clip-path="url(#p9770203af3)">
     <use style="fill:#93c4d2;stroke:#ffffff;stroke-width:0.48;" x="183.100129" xlink:href="#C0_0_1d3d4001e0" y="237.634965"/>
    </g>
    <g clip-path="url(#p9770203af3)">
     <use style="fill:#93c4d2;stroke:#ffffff;stroke-width:0.48;" x="320.643621" xlink:href="#C0_0_1d3d4001e0" y="107.087113"/>
    </g>
    <g clip-path="url(#p9770203af3)">
     <use style="fill:#93c4d2;stroke:#ffffff;stroke-width:0.48;" x="215.84858" xlink:href="#C0_0_1d3d4001e0" y="191.766801"/>
    </g>
    <g clip-path="url(#p9770203af3)">
     <use style="fill:#93c4d2;stroke:#ffffff;stroke-width:0.48;" x="137.252299" xlink:href="#C0_0_1d3d4001e0" y="248.018307"/>
    </g>
    <g clip-path="url(#p9770203af3)">
     <use style="fill:#93c4d2;stroke:#ffffff;stroke-width:0.48;" x="130.702608" xlink:href="#C0_0_1d3d4001e0" y="278.219603"/>
    </g>
    <g clip-path="url(#p9770203af3)">
     <use style="fill:#93c4d2;stroke:#ffffff;stroke-width:0.48;" x="202.749199" xlink:href="#C0_0_1d3d4001e0" y="199.196629"/>
    </g>
    <g clip-path="url(#p9770203af3)">
     <use style="fill:#93c4d2;stroke:#ffffff;stroke-width:0.48;" x="274.79579" xlink:href="#C0_0_1d3d4001e0" y="132.835646"/>
    </g>
    <g clip-path="url(#p9770203af3)">
     <use style="fill:#93c4d2;stroke:#ffffff;stroke-width:0.48;" x="281.34548" xlink:href="#C0_0_1d3d4001e0" y="124.275536"/>
    </g>
   </g>
   <g id="PathCollection_2"/>
   <g id="matplotlib.axis_1">
    <g id="xtick_1">
     <g id="line2d_1">
      <defs>
       <path d="M 0 0 
L 0 3.5 
" id="m47d8c78c01" style="stroke:#000000;stroke-width:0.8;"/>
      </defs>
      <g>
       <use style="stroke:#000000;stroke-width:0.8;" x="84.854778" xlink:href="#m47d8c78c01" y="304.44375"/>
      </g>
     </g>
     <g id="text_1">
      <!-- 0.60 -->
      <defs>
       <path d="M 31.78125 66.40625 
Q 24.171875 66.40625 20.328125 58.90625 
Q 16.5 51.421875 16.5 36.375 
Q 16.5 21.390625 20.328125 13.890625 
Q 24.171875 6.390625 31.78125 6.390625 
Q 39.453125 6.390625 43.28125 13.890625 
Q 47.125 21.390625 47.125 36.375 
Q 47.125 51.421875 43.28125 58.90625 
Q 39.453125 66.40625 31.78125 66.40625 
z
M 31.78125 74.21875 
Q 44.046875 74.21875 50.515625 64.515625 
Q 56.984375 54.828125 56.984375 36.375 
Q 56.984375 17.96875 50.515625 8.265625 
Q 44.046875 -1.421875 31.78125 -1.421875 
Q 19.53125 -1.421875 13.0625 8.265625 
Q 6.59375 17.96875 6.59375 36.375 
Q 6.59375 54.828125 13.0625 64.515625 
Q 19.53125 74.21875 31.78125 74.21875 
z
" id="DejaVuSans-48"/>
       <path d="M 10.6875 12.40625 
L 21 12.40625 
L 21 0 
L 10.6875 0 
z
" id="DejaVuSans-46"/>
       <path d="M 33.015625 40.375 
Q 26.375 40.375 22.484375 35.828125 
Q 18.609375 31.296875 18.609375 23.390625 
Q 18.609375 15.53125 22.484375 10.953125 
Q 26.375 6.390625 33.015625 6.390625 
Q 39.65625 6.390625 43.53125 10.953125 
Q 47.40625 15.53125 47.40625 23.390625 
Q 47.40625 31.296875 43.53125 35.828125 
Q 39.65625 40.375 33.015625 40.375 
z
M 52.59375 71.296875 
L 52.59375 62.3125 
Q 48.875 64.0625 45.09375 64.984375 
Q 41.3125 65.921875 37.59375 65.921875 
Q 27.828125 65.921875 22.671875 59.328125 
Q 17.53125 52.734375 16.796875 39.40625 
Q 19.671875 43.65625 24.015625 45.921875 
Q 28.375 48.1875 33.59375 48.1875 
Q 44.578125 48.1875 50.953125 41.515625 
Q 57.328125 34.859375 57.328125 23.390625 
Q 57.328125 12.15625 50.6875 5.359375 
Q 44.046875 -1.421875 33.015625 -1.421875 
Q 20.359375 -1.421875 13.671875 8.265625 
Q 6.984375 17.96875 6.984375 36.375 
Q 6.984375 53.65625 15.1875 63.9375 
Q 23.390625 74.21875 37.203125 74.21875 
Q 40.921875 74.21875 44.703125 73.484375 
Q 48.484375 72.75 52.59375 71.296875 
z
" id="DejaVuSans-54"/>
      </defs>
      <g transform="translate(73.721965 319.042187)scale(0.1 -0.1)">
       <use xlink:href="#DejaVuSans-48"/>
       <use x="63.623047" xlink:href="#DejaVuSans-46"/>
       <use x="95.410156" xlink:href="#DejaVuSans-54"/>
       <use x="159.033203" xlink:href="#DejaVuSans-48"/>
      </g>
     </g>
    </g>
    <g id="xtick_2">
     <g id="line2d_2">
      <g>
       <use style="stroke:#000000;stroke-width:0.8;" x="150.351679" xlink:href="#m47d8c78c01" y="304.44375"/>
      </g>
     </g>
     <g id="text_2">
      <!-- 0.65 -->
      <defs>
       <path d="M 10.796875 72.90625 
L 49.515625 72.90625 
L 49.515625 64.59375 
L 19.828125 64.59375 
L 19.828125 46.734375 
Q 21.96875 47.46875 24.109375 47.828125 
Q 26.265625 48.1875 28.421875 48.1875 
Q 40.625 48.1875 47.75 41.5 
Q 54.890625 34.8125 54.890625 23.390625 
Q 54.890625 11.625 47.5625 5.09375 
Q 40.234375 -1.421875 26.90625 -1.421875 
Q 22.3125 -1.421875 17.546875 -0.640625 
Q 12.796875 0.140625 7.71875 1.703125 
L 7.71875 11.625 
Q 12.109375 9.234375 16.796875 8.0625 
Q 21.484375 6.890625 26.703125 6.890625 
Q 35.15625 6.890625 40.078125 11.328125 
Q 45.015625 15.765625 45.015625 23.390625 
Q 45.015625 31 40.078125 35.4375 
Q 35.15625 39.890625 26.703125 39.890625 
Q 22.75 39.890625 18.8125 39.015625 
Q 14.890625 38.140625 10.796875 36.28125 
z
" id="DejaVuSans-53"/>
      </defs>
      <g transform="translate(139.218866 319.042187)scale(0.1 -0.1)">
       <use xlink:href="#DejaVuSans-48"/>
       <use x="63.623047" xlink:href="#DejaVuSans-46"/>
       <use x="95.410156" xlink:href="#DejaVuSans-54"/>
       <use x="159.033203" xlink:href="#DejaVuSans-53"/>
      </g>
     </g>
    </g>
    <g id="xtick_3">
     <g id="line2d_3">
      <g>
       <use style="stroke:#000000;stroke-width:0.8;" x="215.84858" xlink:href="#m47d8c78c01" y="304.44375"/>
      </g>
     </g>
     <g id="text_3">
      <!-- 0.70 -->
      <defs>
       <path d="M 8.203125 72.90625 
L 55.078125 72.90625 
L 55.078125 68.703125 
L 28.609375 0 
L 18.3125 0 
L 43.21875 64.59375 
L 8.203125 64.59375 
z
" id="DejaVuSans-55"/>
      </defs>
      <g transform="translate(204.715767 319.042187)scale(0.1 -0.1)">
       <use xlink:href="#DejaVuSans-48"/>
       <use x="63.623047" xlink:href="#DejaVuSans-46"/>
       <use x="95.410156" xlink:href="#DejaVuSans-55"/>
       <use x="159.033203" xlink:href="#DejaVuSans-48"/>
      </g>
     </g>
    </g>
    <g id="xtick_4">
     <g id="line2d_4">
      <g>
       <use style="stroke:#000000;stroke-width:0.8;" x="281.34548" xlink:href="#m47d8c78c01" y="304.44375"/>
      </g>
     </g>
     <g id="text_4">
      <!-- 0.75 -->
      <g transform="translate(270.212668 319.042187)scale(0.1 -0.1)">
       <use xlink:href="#DejaVuSans-48"/>
       <use x="63.623047" xlink:href="#DejaVuSans-46"/>
       <use x="95.410156" xlink:href="#DejaVuSans-55"/>
       <use x="159.033203" xlink:href="#DejaVuSans-53"/>
      </g>
     </g>
    </g>
    <g id="xtick_5">
     <g id="line2d_5">
      <g>
       <use style="stroke:#000000;stroke-width:0.8;" x="346.842381" xlink:href="#m47d8c78c01" y="304.44375"/>
      </g>
     </g>
     <g id="text_5">
      <!-- 0.80 -->
      <defs>
       <path d="M 31.78125 34.625 
Q 24.75 34.625 20.71875 30.859375 
Q 16.703125 27.09375 16.703125 20.515625 
Q 16.703125 13.921875 20.71875 10.15625 
Q 24.75 6.390625 31.78125 6.390625 
Q 38.8125 6.390625 42.859375 10.171875 
Q 46.921875 13.96875 46.921875 20.515625 
Q 46.921875 27.09375 42.890625 30.859375 
Q 38.875 34.625 31.78125 34.625 
z
M 21.921875 38.8125 
Q 15.578125 40.375 12.03125 44.71875 
Q 8.5 49.078125 8.5 55.328125 
Q 8.5 64.0625 14.71875 69.140625 
Q 20.953125 74.21875 31.78125 74.21875 
Q 42.671875 74.21875 48.875 69.140625 
Q 55.078125 64.0625 55.078125 55.328125 
Q 55.078125 49.078125 51.53125 44.71875 
Q 48 40.375 41.703125 38.8125 
Q 48.828125 37.15625 52.796875 32.3125 
Q 56.78125 27.484375 56.78125 20.515625 
Q 56.78125 9.90625 50.3125 4.234375 
Q 43.84375 -1.421875 31.78125 -1.421875 
Q 19.734375 -1.421875 13.25 4.234375 
Q 6.78125 9.90625 6.78125 20.515625 
Q 6.78125 27.484375 10.78125 32.3125 
Q 14.796875 37.15625 21.921875 38.8125 
z
M 18.3125 54.390625 
Q 18.3125 48.734375 21.84375 45.5625 
Q 25.390625 42.390625 31.78125 42.390625 
Q 38.140625 42.390625 41.71875 45.5625 
Q 45.3125 48.734375 45.3125 54.390625 
Q 45.3125 60.0625 41.71875 63.234375 
Q 38.140625 66.40625 31.78125 66.40625 
Q 25.390625 66.40625 21.84375 63.234375 
Q 18.3125 60.0625 18.3125 54.390625 
z
" id="DejaVuSans-56"/>
      </defs>
      <g transform="translate(335.709569 319.042187)scale(0.1 -0.1)">
       <use xlink:href="#DejaVuSans-48"/>
       <use x="63.623047" xlink:href="#DejaVuSans-46"/>
       <use x="95.410156" xlink:href="#DejaVuSans-56"/>
       <use x="159.033203" xlink:href="#DejaVuSans-48"/>
      </g>
     </g>
    </g>
    <g id="xtick_6">
     <g id="line2d_6">
      <g>
       <use style="stroke:#000000;stroke-width:0.8;" x="412.339282" xlink:href="#m47d8c78c01" y="304.44375"/>
      </g>
     </g>
     <g id="text_6">
      <!-- 0.85 -->
      <g transform="translate(401.20647 319.042187)scale(0.1 -0.1)">
       <use xlink:href="#DejaVuSans-48"/>
       <use x="63.623047" xlink:href="#DejaVuSans-46"/>
       <use x="95.410156" xlink:href="#DejaVuSans-56"/>
       <use x="159.033203" xlink:href="#DejaVuSans-53"/>
      </g>
     </g>
    </g>
    <g id="text_7">
     <!-- accuracy -->
     <defs>
      <path d="M 34.28125 27.484375 
Q 23.390625 27.484375 19.1875 25 
Q 14.984375 22.515625 14.984375 16.5 
Q 14.984375 11.71875 18.140625 8.90625 
Q 21.296875 6.109375 26.703125 6.109375 
Q 34.1875 6.109375 38.703125 11.40625 
Q 43.21875 16.703125 43.21875 25.484375 
L 43.21875 27.484375 
z
M 52.203125 31.203125 
L 52.203125 0 
L 43.21875 0 
L 43.21875 8.296875 
Q 40.140625 3.328125 35.546875 0.953125 
Q 30.953125 -1.421875 24.3125 -1.421875 
Q 15.921875 -1.421875 10.953125 3.296875 
Q 6 8.015625 6 15.921875 
Q 6 25.140625 12.171875 29.828125 
Q 18.359375 34.515625 30.609375 34.515625 
L 43.21875 34.515625 
L 43.21875 35.40625 
Q 43.21875 41.609375 39.140625 45 
Q 35.0625 48.390625 27.6875 48.390625 
Q 23 48.390625 18.546875 47.265625 
Q 14.109375 46.140625 10.015625 43.890625 
L 10.015625 52.203125 
Q 14.9375 54.109375 19.578125 55.046875 
Q 24.21875 56 28.609375 56 
Q 40.484375 56 46.34375 49.84375 
Q 52.203125 43.703125 52.203125 31.203125 
z
" id="DejaVuSans-97"/>
      <path d="M 48.78125 52.59375 
L 48.78125 44.1875 
Q 44.96875 46.296875 41.140625 47.34375 
Q 37.3125 48.390625 33.40625 48.390625 
Q 24.65625 48.390625 19.8125 42.84375 
Q 14.984375 37.3125 14.984375 27.296875 
Q 14.984375 17.28125 19.8125 11.734375 
Q 24.65625 6.203125 33.40625 6.203125 
Q 37.3125 6.203125 41.140625 7.25 
Q 44.96875 8.296875 48.78125 10.40625 
L 48.78125 2.09375 
Q 45.015625 0.34375 40.984375 -0.53125 
Q 36.96875 -1.421875 32.421875 -1.421875 
Q 20.0625 -1.421875 12.78125 6.34375 
Q 5.515625 14.109375 5.515625 27.296875 
Q 5.515625 40.671875 12.859375 48.328125 
Q 20.21875 56 33.015625 56 
Q 37.15625 56 41.109375 55.140625 
Q 45.0625 54.296875 48.78125 52.59375 
z
" id="DejaVuSans-99"/>
      <path d="M 8.5 21.578125 
L 8.5 54.6875 
L 17.484375 54.6875 
L 17.484375 21.921875 
Q 17.484375 14.15625 20.5 10.265625 
Q 23.53125 6.390625 29.59375 6.390625 
Q 36.859375 6.390625 41.078125 11.03125 
Q 45.3125 15.671875 45.3125 23.6875 
L 45.3125 54.6875 
L 54.296875 54.6875 
L 54.296875 0 
L 45.3125 0 
L 45.3125 8.40625 
Q 42.046875 3.421875 37.71875 1 
Q 33.40625 -1.421875 27.6875 -1.421875 
Q 18.265625 -1.421875 13.375 4.4375 
Q 8.5 10.296875 8.5 21.578125 
z
M 31.109375 56 
z
" id="DejaVuSans-117"/>
      <path d="M 41.109375 46.296875 
Q 39.59375 47.171875 37.8125 47.578125 
Q 36.03125 48 33.890625 48 
Q 26.265625 48 22.1875 43.046875 
Q 18.109375 38.09375 18.109375 28.8125 
L 18.109375 0 
L 9.078125 0 
L 9.078125 54.6875 
L 18.109375 54.6875 
L 18.109375 46.1875 
Q 20.953125 51.171875 25.484375 53.578125 
Q 30.03125 56 36.53125 56 
Q 37.453125 56 38.578125 55.875 
Q 39.703125 55.765625 41.0625 55.515625 
z
" id="DejaVuSans-114"/>
      <path d="M 32.171875 -5.078125 
Q 28.375 -14.84375 24.75 -17.8125 
Q 21.140625 -20.796875 15.09375 -20.796875 
L 7.90625 -20.796875 
L 7.90625 -13.28125 
L 13.1875 -13.28125 
Q 16.890625 -13.28125 18.9375 -11.515625 
Q 21 -9.765625 23.484375 -3.21875 
L 25.09375 0.875 
L 2.984375 54.6875 
L 12.5 54.6875 
L 29.59375 11.921875 
L 46.6875 54.6875 
L 56.203125 54.6875 
z
" id="DejaVuSans-121"/>
     </defs>
     <g transform="translate(229.3125 332.720312)scale(0.1 -0.1)">
      <use xlink:href="#DejaVuSans-97"/>
      <use x="61.279297" xlink:href="#DejaVuSans-99"/>
      <use x="116.259766" xlink:href="#DejaVuSans-99"/>
      <use x="171.240234" xlink:href="#DejaVuSans-117"/>
      <use x="234.619141" xlink:href="#DejaVuSans-114"/>
      <use x="275.732422" xlink:href="#DejaVuSans-97"/>
      <use x="337.011719" xlink:href="#DejaVuSans-99"/>
      <use x="391.992188" xlink:href="#DejaVuSans-121"/>
     </g>
    </g>
   </g>
   <g id="matplotlib.axis_2">
    <g id="ytick_1">
     <g id="line2d_7">
      <defs>
       <path d="M 0 0 
L -3.5 0 
" id="m3b73d29343" style="stroke:#000000;stroke-width:0.8;"/>
      </defs>
      <g>
       <use style="stroke:#000000;stroke-width:0.8;" x="53.74375" xlink:href="#m3b73d29343" y="255.805814"/>
      </g>
     </g>
     <g id="text_8">
      <!-- 0.65 -->
      <g transform="translate(24.478125 259.605033)scale(0.1 -0.1)">
       <use xlink:href="#DejaVuSans-48"/>
       <use x="63.623047" xlink:href="#DejaVuSans-46"/>
       <use x="95.410156" xlink:href="#DejaVuSans-54"/>
       <use x="159.033203" xlink:href="#DejaVuSans-53"/>
      </g>
     </g>
    </g>
    <g id="ytick_2">
     <g id="line2d_8">
      <g>
       <use style="stroke:#000000;stroke-width:0.8;" x="53.74375" xlink:href="#m3b73d29343" y="201.293265"/>
      </g>
     </g>
     <g id="text_9">
      <!-- 0.70 -->
      <g transform="translate(24.478125 205.092484)scale(0.1 -0.1)">
       <use xlink:href="#DejaVuSans-48"/>
       <use x="63.623047" xlink:href="#DejaVuSans-46"/>
       <use x="95.410156" xlink:href="#DejaVuSans-55"/>
       <use x="159.033203" xlink:href="#DejaVuSans-48"/>
      </g>
     </g>
    </g>
    <g id="ytick_3">
     <g id="line2d_9">
      <g>
       <use style="stroke:#000000;stroke-width:0.8;" x="53.74375" xlink:href="#m3b73d29343" y="146.780716"/>
      </g>
     </g>
     <g id="text_10">
      <!-- 0.75 -->
      <g transform="translate(24.478125 150.579935)scale(0.1 -0.1)">
       <use xlink:href="#DejaVuSans-48"/>
       <use x="63.623047" xlink:href="#DejaVuSans-46"/>
       <use x="95.410156" xlink:href="#DejaVuSans-55"/>
       <use x="159.033203" xlink:href="#DejaVuSans-53"/>
      </g>
     </g>
    </g>
    <g id="ytick_4">
     <g id="line2d_10">
      <g>
       <use style="stroke:#000000;stroke-width:0.8;" x="53.74375" xlink:href="#m3b73d29343" y="92.268168"/>
      </g>
     </g>
     <g id="text_11">
      <!-- 0.80 -->
      <g transform="translate(24.478125 96.067386)scale(0.1 -0.1)">
       <use xlink:href="#DejaVuSans-48"/>
       <use x="63.623047" xlink:href="#DejaVuSans-46"/>
       <use x="95.410156" xlink:href="#DejaVuSans-56"/>
       <use x="159.033203" xlink:href="#DejaVuSans-48"/>
      </g>
     </g>
    </g>
    <g id="ytick_5">
     <g id="line2d_11">
      <g>
       <use style="stroke:#000000;stroke-width:0.8;" x="53.74375" xlink:href="#m3b73d29343" y="37.755619"/>
      </g>
     </g>
     <g id="text_12">
      <!-- 0.85 -->
      <g transform="translate(24.478125 41.554837)scale(0.1 -0.1)">
       <use xlink:href="#DejaVuSans-48"/>
       <use x="63.623047" xlink:href="#DejaVuSans-46"/>
       <use x="95.410156" xlink:href="#DejaVuSans-56"/>
       <use x="159.033203" xlink:href="#DejaVuSans-53"/>
      </g>
     </g>
    </g>
    <g id="text_13">
     <!-- f -->
     <defs>
      <path d="M 37.109375 75.984375 
L 37.109375 68.5 
L 28.515625 68.5 
Q 23.6875 68.5 21.796875 66.546875 
Q 19.921875 64.59375 19.921875 59.515625 
L 19.921875 54.6875 
L 34.71875 54.6875 
L 34.71875 47.703125 
L 19.921875 47.703125 
L 19.921875 0 
L 10.890625 0 
L 10.890625 47.703125 
L 2.296875 47.703125 
L 2.296875 54.6875 
L 10.890625 54.6875 
L 10.890625 58.5 
Q 10.890625 67.625 15.140625 71.796875 
Q 19.390625 75.984375 28.609375 75.984375 
z
" id="DejaVuSans-102"/>
     </defs>
     <g transform="translate(18.398438 167.962031)rotate(-90)scale(0.1 -0.1)">
      <use xlink:href="#DejaVuSans-102"/>
     </g>
    </g>
   </g>
   <g id="patch_3">
    <path d="M 53.74375 304.44375 
L 53.74375 27.96 
" style="fill:none;stroke:#000000;stroke-linecap:square;stroke-linejoin:miter;stroke-width:0.8;"/>
   </g>
   <g id="patch_4">
    <path d="M 450 304.44375 
L 450 27.96 
" style="fill:none;stroke:#000000;stroke-linecap:square;stroke-linejoin:miter;stroke-width:0.8;"/>
   </g>
   <g id="patch_5">
    <path d="M 53.74375 304.44375 
L 450 304.44375 
" style="fill:none;stroke:#000000;stroke-linecap:square;stroke-linejoin:miter;stroke-width:0.8;"/>
   </g>
   <g id="patch_6">
    <path d="M 53.74375 27.96 
L 450 27.96 
" style="fill:none;stroke:#000000;stroke-linecap:square;stroke-linejoin:miter;stroke-width:0.8;"/>
   </g>
   <g id="text_14">
    <!-- Éxito no $\it{dataset}$ 32 imaxes 128x128 (valores atípicos) -->
    <defs>
     <path d="M 9.8125 72.90625 
L 55.90625 72.90625 
L 55.90625 64.59375 
L 19.671875 64.59375 
L 19.671875 43.015625 
L 54.390625 43.015625 
L 54.390625 34.71875 
L 19.671875 34.71875 
L 19.671875 8.296875 
L 56.78125 8.296875 
L 56.78125 0 
L 9.8125 0 
z
M 35.4375 92.515625 
L 44.46875 92.515625 
L 33.34375 79.625 
L 25.859375 79.625 
z
" id="DejaVuSans-201"/>
     <path d="M 54.890625 54.6875 
L 35.109375 28.078125 
L 55.90625 0 
L 45.3125 0 
L 29.390625 21.484375 
L 13.484375 0 
L 2.875 0 
L 24.125 28.609375 
L 4.6875 54.6875 
L 15.28125 54.6875 
L 29.78125 35.203125 
L 44.28125 54.6875 
z
" id="DejaVuSans-120"/>
     <path d="M 9.421875 54.6875 
L 18.40625 54.6875 
L 18.40625 0 
L 9.421875 0 
z
M 9.421875 75.984375 
L 18.40625 75.984375 
L 18.40625 64.59375 
L 9.421875 64.59375 
z
" id="DejaVuSans-105"/>
     <path d="M 18.3125 70.21875 
L 18.3125 54.6875 
L 36.8125 54.6875 
L 36.8125 47.703125 
L 18.3125 47.703125 
L 18.3125 18.015625 
Q 18.3125 11.328125 20.140625 9.421875 
Q 21.96875 7.515625 27.59375 7.515625 
L 36.8125 7.515625 
L 36.8125 0 
L 27.59375 0 
Q 17.1875 0 13.234375 3.875 
Q 9.28125 7.765625 9.28125 18.015625 
L 9.28125 47.703125 
L 2.6875 47.703125 
L 2.6875 54.6875 
L 9.28125 54.6875 
L 9.28125 70.21875 
z
" id="DejaVuSans-116"/>
     <path d="M 30.609375 48.390625 
Q 23.390625 48.390625 19.1875 42.75 
Q 14.984375 37.109375 14.984375 27.296875 
Q 14.984375 17.484375 19.15625 11.84375 
Q 23.34375 6.203125 30.609375 6.203125 
Q 37.796875 6.203125 41.984375 11.859375 
Q 46.1875 17.53125 46.1875 27.296875 
Q 46.1875 37.015625 41.984375 42.703125 
Q 37.796875 48.390625 30.609375 48.390625 
z
M 30.609375 56 
Q 42.328125 56 49.015625 48.375 
Q 55.71875 40.765625 55.71875 27.296875 
Q 55.71875 13.875 49.015625 6.21875 
Q 42.328125 -1.421875 30.609375 -1.421875 
Q 18.84375 -1.421875 12.171875 6.21875 
Q 5.515625 13.875 5.515625 27.296875 
Q 5.515625 40.765625 12.171875 48.375 
Q 18.84375 56 30.609375 56 
z
" id="DejaVuSans-111"/>
     <path id="DejaVuSans-32"/>
     <path d="M 54.890625 33.015625 
L 54.890625 0 
L 45.90625 0 
L 45.90625 32.71875 
Q 45.90625 40.484375 42.875 44.328125 
Q 39.84375 48.1875 33.796875 48.1875 
Q 26.515625 48.1875 22.3125 43.546875 
Q 18.109375 38.921875 18.109375 30.90625 
L 18.109375 0 
L 9.078125 0 
L 9.078125 54.6875 
L 18.109375 54.6875 
L 18.109375 46.1875 
Q 21.34375 51.125 25.703125 53.5625 
Q 30.078125 56 35.796875 56 
Q 45.21875 56 50.046875 50.171875 
Q 54.890625 44.34375 54.890625 33.015625 
z
" id="DejaVuSans-110"/>
     <path d="M 41.796875 8.203125 
Q 38.1875 3.46875 33.25 1.015625 
Q 28.328125 -1.421875 22.3125 -1.421875 
Q 14.109375 -1.421875 9.34375 4.171875 
Q 4.59375 9.765625 4.59375 19.484375 
Q 4.59375 27.59375 7.46875 34.9375 
Q 10.359375 42.28125 15.828125 48.09375 
Q 19.4375 51.953125 23.96875 53.96875 
Q 28.515625 56 33.5 56 
Q 38.765625 56 42.796875 53.453125 
Q 46.828125 50.921875 49.03125 46.1875 
L 54.890625 75.984375 
L 63.921875 75.984375 
L 49.125 0 
L 40.09375 0 
z
M 13.921875 21.09375 
Q 13.921875 14.015625 17.109375 10.0625 
Q 20.3125 6.109375 25.984375 6.109375 
Q 30.171875 6.109375 33.765625 8.125 
Q 37.359375 10.15625 40.09375 14.109375 
Q 42.96875 18.21875 44.625 23.578125 
Q 46.296875 28.953125 46.296875 34.1875 
Q 46.296875 40.96875 43.09375 44.765625 
Q 39.890625 48.578125 34.28125 48.578125 
Q 30.03125 48.578125 26.359375 46.578125 
Q 22.703125 44.578125 20.125 40.828125 
Q 17.28125 36.765625 15.59375 31.390625 
Q 13.921875 26.03125 13.921875 21.09375 
z
" id="DejaVuSans-Oblique-100"/>
     <path d="M 53.71875 31.203125 
L 47.609375 0 
L 38.625 0 
L 40.28125 8.296875 
Q 36.328125 3.421875 31.265625 1 
Q 26.21875 -1.421875 20.015625 -1.421875 
Q 13.03125 -1.421875 8.5625 2.84375 
Q 4.109375 7.125 4.109375 13.8125 
Q 4.109375 23.390625 11.75 28.953125 
Q 19.390625 34.515625 32.8125 34.515625 
L 45.3125 34.515625 
L 45.796875 36.921875 
Q 45.90625 37.3125 45.953125 37.765625 
Q 46 38.234375 46 39.203125 
Q 46 43.5625 42.453125 45.96875 
Q 38.921875 48.390625 32.515625 48.390625 
Q 28.125 48.390625 23.5 47.265625 
Q 18.890625 46.140625 14.015625 43.890625 
L 15.578125 52.203125 
Q 20.65625 54.109375 25.515625 55.046875 
Q 30.375 56 34.90625 56 
Q 44.578125 56 49.625 51.796875 
Q 54.6875 47.609375 54.6875 39.59375 
Q 54.6875 37.984375 54.4375 35.8125 
Q 54.203125 33.640625 53.71875 31.203125 
z
M 44 27.484375 
L 35.015625 27.484375 
Q 23.96875 27.484375 18.671875 24.53125 
Q 13.375 21.578125 13.375 15.375 
Q 13.375 11.078125 16.078125 8.640625 
Q 18.796875 6.203125 23.578125 6.203125 
Q 30.90625 6.203125 36.375 11.453125 
Q 41.84375 16.703125 43.609375 25.484375 
z
" id="DejaVuSans-Oblique-97"/>
     <path d="M 42.28125 54.6875 
L 40.921875 47.703125 
L 23 47.703125 
L 17.1875 18.015625 
Q 16.890625 16.359375 16.75 15.234375 
Q 16.609375 14.109375 16.609375 13.484375 
Q 16.609375 10.359375 18.484375 8.9375 
Q 20.359375 7.515625 24.515625 7.515625 
L 33.59375 7.515625 
L 32.078125 0 
L 23.484375 0 
Q 15.484375 0 11.546875 3.125 
Q 7.625 6.25 7.625 12.59375 
Q 7.625 13.71875 7.765625 15.0625 
Q 7.90625 16.40625 8.203125 18.015625 
L 14.015625 47.703125 
L 6.390625 47.703125 
L 7.8125 54.6875 
L 15.28125 54.6875 
L 18.3125 70.21875 
L 27.296875 70.21875 
L 24.3125 54.6875 
z
" id="DejaVuSans-Oblique-116"/>
     <path d="M 50 53.078125 
L 48.296875 44.578125 
Q 44.734375 46.53125 40.765625 47.5 
Q 36.8125 48.484375 32.625 48.484375 
Q 25.53125 48.484375 21.453125 46.0625 
Q 17.390625 43.65625 17.390625 39.5 
Q 17.390625 34.671875 26.859375 32.078125 
Q 27.59375 31.890625 27.9375 31.78125 
L 30.8125 30.90625 
Q 39.796875 28.421875 42.796875 25.6875 
Q 45.796875 22.953125 45.796875 18.21875 
Q 45.796875 9.515625 38.890625 4.046875 
Q 31.984375 -1.421875 20.796875 -1.421875 
Q 16.453125 -1.421875 11.671875 -0.578125 
Q 6.890625 0.25 1.125 2 
L 2.875 11.28125 
Q 7.8125 8.734375 12.59375 7.421875 
Q 17.390625 6.109375 21.78125 6.109375 
Q 28.375 6.109375 32.5 8.9375 
Q 36.625 11.765625 36.625 16.109375 
Q 36.625 20.796875 25.78125 23.6875 
L 24.859375 23.921875 
L 21.78125 24.703125 
Q 14.9375 26.515625 11.765625 29.46875 
Q 8.59375 32.421875 8.59375 37.015625 
Q 8.59375 45.75 15.15625 50.875 
Q 21.734375 56 33.015625 56 
Q 37.453125 56 41.671875 55.265625 
Q 45.90625 54.546875 50 53.078125 
z
" id="DejaVuSans-Oblique-115"/>
     <path d="M 48.09375 32.234375 
Q 48.25 33.015625 48.3125 33.84375 
Q 48.390625 34.671875 48.390625 35.5 
Q 48.390625 41.453125 44.890625 44.921875 
Q 41.40625 48.390625 35.40625 48.390625 
Q 28.71875 48.390625 23.578125 44.15625 
Q 18.453125 39.9375 15.828125 32.171875 
z
M 55.90625 25.203125 
L 14.109375 25.203125 
Q 13.8125 23.34375 13.71875 22.265625 
Q 13.625 21.1875 13.625 20.40625 
Q 13.625 13.625 17.796875 9.90625 
Q 21.96875 6.203125 29.59375 6.203125 
Q 35.453125 6.203125 40.671875 7.515625 
Q 45.90625 8.84375 50.390625 11.375 
L 48.6875 2.484375 
Q 43.84375 0.53125 38.6875 -0.4375 
Q 33.546875 -1.421875 28.21875 -1.421875 
Q 16.84375 -1.421875 10.71875 4.015625 
Q 4.59375 9.46875 4.59375 19.484375 
Q 4.59375 28.03125 7.640625 35.375 
Q 10.6875 42.71875 16.609375 48.484375 
Q 20.40625 52.09375 25.65625 54.046875 
Q 30.90625 56 36.8125 56 
Q 46.09375 56 51.578125 50.4375 
Q 57.078125 44.875 57.078125 35.5 
Q 57.078125 33.25 56.78125 30.6875 
Q 56.5 28.125 55.90625 25.203125 
z
" id="DejaVuSans-Oblique-101"/>
     <path d="M 40.578125 39.3125 
Q 47.65625 37.796875 51.625 33 
Q 55.609375 28.21875 55.609375 21.1875 
Q 55.609375 10.40625 48.1875 4.484375 
Q 40.765625 -1.421875 27.09375 -1.421875 
Q 22.515625 -1.421875 17.65625 -0.515625 
Q 12.796875 0.390625 7.625 2.203125 
L 7.625 11.71875 
Q 11.71875 9.328125 16.59375 8.109375 
Q 21.484375 6.890625 26.8125 6.890625 
Q 36.078125 6.890625 40.9375 10.546875 
Q 45.796875 14.203125 45.796875 21.1875 
Q 45.796875 27.640625 41.28125 31.265625 
Q 36.765625 34.90625 28.71875 34.90625 
L 20.21875 34.90625 
L 20.21875 43.015625 
L 29.109375 43.015625 
Q 36.375 43.015625 40.234375 45.921875 
Q 44.09375 48.828125 44.09375 54.296875 
Q 44.09375 59.90625 40.109375 62.90625 
Q 36.140625 65.921875 28.71875 65.921875 
Q 24.65625 65.921875 20.015625 65.03125 
Q 15.375 64.15625 9.8125 62.3125 
L 9.8125 71.09375 
Q 15.4375 72.65625 20.34375 73.4375 
Q 25.25 74.21875 29.59375 74.21875 
Q 40.828125 74.21875 47.359375 69.109375 
Q 53.90625 64.015625 53.90625 55.328125 
Q 53.90625 49.265625 50.4375 45.09375 
Q 46.96875 40.921875 40.578125 39.3125 
z
" id="DejaVuSans-51"/>
     <path d="M 19.1875 8.296875 
L 53.609375 8.296875 
L 53.609375 0 
L 7.328125 0 
L 7.328125 8.296875 
Q 12.9375 14.109375 22.625 23.890625 
Q 32.328125 33.6875 34.8125 36.53125 
Q 39.546875 41.84375 41.421875 45.53125 
Q 43.3125 49.21875 43.3125 52.78125 
Q 43.3125 58.59375 39.234375 62.25 
Q 35.15625 65.921875 28.609375 65.921875 
Q 23.96875 65.921875 18.8125 64.3125 
Q 13.671875 62.703125 7.8125 59.421875 
L 7.8125 69.390625 
Q 13.765625 71.78125 18.9375 73 
Q 24.125 74.21875 28.421875 74.21875 
Q 39.75 74.21875 46.484375 68.546875 
Q 53.21875 62.890625 53.21875 53.421875 
Q 53.21875 48.921875 51.53125 44.890625 
Q 49.859375 40.875 45.40625 35.40625 
Q 44.1875 33.984375 37.640625 27.21875 
Q 31.109375 20.453125 19.1875 8.296875 
z
" id="DejaVuSans-50"/>
     <path d="M 52 44.1875 
Q 55.375 50.25 60.0625 53.125 
Q 64.75 56 71.09375 56 
Q 79.640625 56 84.28125 50.015625 
Q 88.921875 44.046875 88.921875 33.015625 
L 88.921875 0 
L 79.890625 0 
L 79.890625 32.71875 
Q 79.890625 40.578125 77.09375 44.375 
Q 74.3125 48.1875 68.609375 48.1875 
Q 61.625 48.1875 57.5625 43.546875 
Q 53.515625 38.921875 53.515625 30.90625 
L 53.515625 0 
L 44.484375 0 
L 44.484375 32.71875 
Q 44.484375 40.625 41.703125 44.40625 
Q 38.921875 48.1875 33.109375 48.1875 
Q 26.21875 48.1875 22.15625 43.53125 
Q 18.109375 38.875 18.109375 30.90625 
L 18.109375 0 
L 9.078125 0 
L 9.078125 54.6875 
L 18.109375 54.6875 
L 18.109375 46.1875 
Q 21.1875 51.21875 25.484375 53.609375 
Q 29.78125 56 35.6875 56 
Q 41.65625 56 45.828125 52.96875 
Q 50 49.953125 52 44.1875 
z
" id="DejaVuSans-109"/>
     <path d="M 56.203125 29.59375 
L 56.203125 25.203125 
L 14.890625 25.203125 
Q 15.484375 15.921875 20.484375 11.0625 
Q 25.484375 6.203125 34.421875 6.203125 
Q 39.59375 6.203125 44.453125 7.46875 
Q 49.3125 8.734375 54.109375 11.28125 
L 54.109375 2.78125 
Q 49.265625 0.734375 44.1875 -0.34375 
Q 39.109375 -1.421875 33.890625 -1.421875 
Q 20.796875 -1.421875 13.15625 6.1875 
Q 5.515625 13.8125 5.515625 26.8125 
Q 5.515625 40.234375 12.765625 48.109375 
Q 20.015625 56 32.328125 56 
Q 43.359375 56 49.78125 48.890625 
Q 56.203125 41.796875 56.203125 29.59375 
z
M 47.21875 32.234375 
Q 47.125 39.59375 43.09375 43.984375 
Q 39.0625 48.390625 32.421875 48.390625 
Q 24.90625 48.390625 20.390625 44.140625 
Q 15.875 39.890625 15.1875 32.171875 
z
" id="DejaVuSans-101"/>
     <path d="M 44.28125 53.078125 
L 44.28125 44.578125 
Q 40.484375 46.53125 36.375 47.5 
Q 32.28125 48.484375 27.875 48.484375 
Q 21.1875 48.484375 17.84375 46.4375 
Q 14.5 44.390625 14.5 40.28125 
Q 14.5 37.15625 16.890625 35.375 
Q 19.28125 33.59375 26.515625 31.984375 
L 29.59375 31.296875 
Q 39.15625 29.25 43.1875 25.515625 
Q 47.21875 21.78125 47.21875 15.09375 
Q 47.21875 7.46875 41.1875 3.015625 
Q 35.15625 -1.421875 24.609375 -1.421875 
Q 20.21875 -1.421875 15.453125 -0.5625 
Q 10.6875 0.296875 5.421875 2 
L 5.421875 11.28125 
Q 10.40625 8.6875 15.234375 7.390625 
Q 20.0625 6.109375 24.8125 6.109375 
Q 31.15625 6.109375 34.5625 8.28125 
Q 37.984375 10.453125 37.984375 14.40625 
Q 37.984375 18.0625 35.515625 20.015625 
Q 33.0625 21.96875 24.703125 23.78125 
L 21.578125 24.515625 
Q 13.234375 26.265625 9.515625 29.90625 
Q 5.8125 33.546875 5.8125 39.890625 
Q 5.8125 47.609375 11.28125 51.796875 
Q 16.75 56 26.8125 56 
Q 31.78125 56 36.171875 55.265625 
Q 40.578125 54.546875 44.28125 53.078125 
z
" id="DejaVuSans-115"/>
     <path d="M 12.40625 8.296875 
L 28.515625 8.296875 
L 28.515625 63.921875 
L 10.984375 60.40625 
L 10.984375 69.390625 
L 28.421875 72.90625 
L 38.28125 72.90625 
L 38.28125 8.296875 
L 54.390625 8.296875 
L 54.390625 0 
L 12.40625 0 
z
" id="DejaVuSans-49"/>
     <path d="M 31 75.875 
Q 24.46875 64.65625 21.28125 53.65625 
Q 18.109375 42.671875 18.109375 31.390625 
Q 18.109375 20.125 21.3125 9.0625 
Q 24.515625 -2 31 -13.1875 
L 23.1875 -13.1875 
Q 15.875 -1.703125 12.234375 9.375 
Q 8.59375 20.453125 8.59375 31.390625 
Q 8.59375 42.28125 12.203125 53.3125 
Q 15.828125 64.359375 23.1875 75.875 
z
" id="DejaVuSans-40"/>
     <path d="M 2.984375 54.6875 
L 12.5 54.6875 
L 29.59375 8.796875 
L 46.6875 54.6875 
L 56.203125 54.6875 
L 35.6875 0 
L 23.484375 0 
z
" id="DejaVuSans-118"/>
     <path d="M 9.421875 75.984375 
L 18.40625 75.984375 
L 18.40625 0 
L 9.421875 0 
z
" id="DejaVuSans-108"/>
     <path d="M 20.65625 79.984375 
L 30.375 79.984375 
L 14.46875 61.625 
L 6.984375 61.625 
z
M 9.421875 54.6875 
L 18.40625 54.6875 
L 18.40625 0 
L 9.421875 0 
z
M 13.921875 56 
z
" id="DejaVuSans-237"/>
     <path d="M 18.109375 8.203125 
L 18.109375 -20.796875 
L 9.078125 -20.796875 
L 9.078125 54.6875 
L 18.109375 54.6875 
L 18.109375 46.390625 
Q 20.953125 51.265625 25.265625 53.625 
Q 29.59375 56 35.59375 56 
Q 45.5625 56 51.78125 48.09375 
Q 58.015625 40.1875 58.015625 27.296875 
Q 58.015625 14.40625 51.78125 6.484375 
Q 45.5625 -1.421875 35.59375 -1.421875 
Q 29.59375 -1.421875 25.265625 0.953125 
Q 20.953125 3.328125 18.109375 8.203125 
z
M 48.6875 27.296875 
Q 48.6875 37.203125 44.609375 42.84375 
Q 40.53125 48.484375 33.40625 48.484375 
Q 26.265625 48.484375 22.1875 42.84375 
Q 18.109375 37.203125 18.109375 27.296875 
Q 18.109375 17.390625 22.1875 11.75 
Q 26.265625 6.109375 33.40625 6.109375 
Q 40.53125 6.109375 44.609375 11.75 
Q 48.6875 17.390625 48.6875 27.296875 
z
" id="DejaVuSans-112"/>
     <path d="M 8.015625 75.875 
L 15.828125 75.875 
Q 23.140625 64.359375 26.78125 53.3125 
Q 30.421875 42.28125 30.421875 31.390625 
Q 30.421875 20.453125 26.78125 9.375 
Q 23.140625 -1.703125 15.828125 -13.1875 
L 8.015625 -13.1875 
Q 14.5 -2 17.703125 9.0625 
Q 20.90625 20.125 20.90625 31.390625 
Q 20.90625 42.671875 17.703125 53.65625 
Q 14.5 64.65625 8.015625 75.875 
z
" id="DejaVuSans-41"/>
    </defs>
    <g transform="translate(87.831875 21.96)scale(0.12 -0.12)">
     <use transform="translate(0 0.484375)" xlink:href="#DejaVuSans-201"/>
     <use transform="translate(63.183594 0.484375)" xlink:href="#DejaVuSans-120"/>
     <use transform="translate(122.363281 0.484375)" xlink:href="#DejaVuSans-105"/>
     <use transform="translate(150.146484 0.484375)" xlink:href="#DejaVuSans-116"/>
     <use transform="translate(189.355469 0.484375)" xlink:href="#DejaVuSans-111"/>
     <use transform="translate(250.537109 0.484375)" xlink:href="#DejaVuSans-32"/>
     <use transform="translate(282.324219 0.484375)" xlink:href="#DejaVuSans-110"/>
     <use transform="translate(345.703125 0.484375)" xlink:href="#DejaVuSans-111"/>
     <use transform="translate(406.884766 0.484375)" xlink:href="#DejaVuSans-32"/>
     <use transform="translate(438.671875 0.484375)" xlink:href="#DejaVuSans-Oblique-100"/>
     <use transform="translate(502.148438 0.484375)" xlink:href="#DejaVuSans-Oblique-97"/>
     <use transform="translate(563.427734 0.484375)" xlink:href="#DejaVuSans-Oblique-116"/>
     <use transform="translate(602.636719 0.484375)" xlink:href="#DejaVuSans-Oblique-97"/>
     <use transform="translate(663.916016 0.484375)" xlink:href="#DejaVuSans-Oblique-115"/>
     <use transform="translate(716.015625 0.484375)" xlink:href="#DejaVuSans-Oblique-101"/>
     <use transform="translate(777.539062 0.484375)" xlink:href="#DejaVuSans-Oblique-116"/>
     <use transform="translate(816.748047 0.484375)" xlink:href="#DejaVuSans-32"/>
     <use transform="translate(848.535156 0.484375)" xlink:href="#DejaVuSans-51"/>
     <use transform="translate(912.158203 0.484375)" xlink:href="#DejaVuSans-50"/>
     <use transform="translate(975.78125 0.484375)" xlink:href="#DejaVuSans-32"/>
     <use transform="translate(1007.568359 0.484375)" xlink:href="#DejaVuSans-105"/>
     <use transform="translate(1035.351562 0.484375)" xlink:href="#DejaVuSans-109"/>
     <use transform="translate(1132.763672 0.484375)" xlink:href="#DejaVuSans-97"/>
     <use transform="translate(1194.042969 0.484375)" xlink:href="#DejaVuSans-120"/>
     <use transform="translate(1253.222656 0.484375)" xlink:href="#DejaVuSans-101"/>
     <use transform="translate(1314.746094 0.484375)" xlink:href="#DejaVuSans-115"/>
     <use transform="translate(1366.845703 0.484375)" xlink:href="#DejaVuSans-32"/>
     <use transform="translate(1398.632812 0.484375)" xlink:href="#DejaVuSans-49"/>
     <use transform="translate(1462.255859 0.484375)" xlink:href="#DejaVuSans-50"/>
     <use transform="translate(1525.878906 0.484375)" xlink:href="#DejaVuSans-56"/>
     <use transform="translate(1589.501953 0.484375)" xlink:href="#DejaVuSans-120"/>
     <use transform="translate(1648.681641 0.484375)" xlink:href="#DejaVuSans-49"/>
     <use transform="translate(1712.304688 0.484375)" xlink:href="#DejaVuSans-50"/>
     <use transform="translate(1775.927734 0.484375)" xlink:href="#DejaVuSans-56"/>
     <use transform="translate(1839.550781 0.484375)" xlink:href="#DejaVuSans-32"/>
     <use transform="translate(1871.337891 0.484375)" xlink:href="#DejaVuSans-40"/>
     <use transform="translate(1910.351562 0.484375)" xlink:href="#DejaVuSans-118"/>
     <use transform="translate(1969.53125 0.484375)" xlink:href="#DejaVuSans-97"/>
     <use transform="translate(2030.810547 0.484375)" xlink:href="#DejaVuSans-108"/>
     <use transform="translate(2058.59375 0.484375)" xlink:href="#DejaVuSans-111"/>
     <use transform="translate(2119.775391 0.484375)" xlink:href="#DejaVuSans-114"/>
     <use transform="translate(2160.888672 0.484375)" xlink:href="#DejaVuSans-101"/>
     <use transform="translate(2222.412109 0.484375)" xlink:href="#DejaVuSans-115"/>
     <use transform="translate(2274.511719 0.484375)" xlink:href="#DejaVuSans-32"/>
     <use transform="translate(2306.298828 0.484375)" xlink:href="#DejaVuSans-97"/>
     <use transform="translate(2367.578125 0.484375)" xlink:href="#DejaVuSans-116"/>
     <use transform="translate(2406.787109 0.484375)" xlink:href="#DejaVuSans-237"/>
     <use transform="translate(2434.570312 0.484375)" xlink:href="#DejaVuSans-112"/>
     <use transform="translate(2498.046875 0.484375)" xlink:href="#DejaVuSans-105"/>
     <use transform="translate(2525.830078 0.484375)" xlink:href="#DejaVuSans-99"/>
     <use transform="translate(2580.810547 0.484375)" xlink:href="#DejaVuSans-111"/>
     <use transform="translate(2641.992188 0.484375)" xlink:href="#DejaVuSans-115"/>
     <use transform="translate(2694.091797 0.484375)" xlink:href="#DejaVuSans-41"/>
    </g>
   </g>
   <g id="legend_1">
    <g id="patch_7">
     <path d="M 60.74375 65.31625 
L 157.94375 65.31625 
Q 159.94375 65.31625 159.94375 63.31625 
L 159.94375 34.96 
Q 159.94375 32.96 157.94375 32.96 
L 60.74375 32.96 
Q 58.74375 32.96 58.74375 34.96 
L 58.74375 63.31625 
Q 58.74375 65.31625 60.74375 65.31625 
z
" style="fill:#ffffff;opacity:0.8;stroke:#cccccc;stroke-linejoin:miter;"/>
    </g>
    <g id="text_15">
     <!-- $\it{Dataset}$ validación -->
     <defs>
      <path d="M 16.890625 72.90625 
L 38.09375 72.90625 
Q 54.984375 72.90625 63.59375 65.75 
Q 72.21875 58.59375 72.21875 44.484375 
Q 72.21875 35.15625 68.9375 26.53125 
Q 65.671875 17.921875 59.90625 12.015625 
Q 54.109375 5.953125 45.171875 2.96875 
Q 36.234375 0 24.03125 0 
L 2.6875 0 
z
M 25.203125 64.796875 
L 14.203125 8.109375 
L 27.09375 8.109375 
Q 43.65625 8.109375 52.734375 17.625 
Q 61.8125 27.15625 61.8125 44.484375 
Q 61.8125 54.984375 55.953125 59.890625 
Q 50.09375 64.796875 37.59375 64.796875 
z
" id="DejaVuSans-Oblique-68"/>
      <path d="M 45.40625 46.390625 
L 45.40625 75.984375 
L 54.390625 75.984375 
L 54.390625 0 
L 45.40625 0 
L 45.40625 8.203125 
Q 42.578125 3.328125 38.25 0.953125 
Q 33.9375 -1.421875 27.875 -1.421875 
Q 17.96875 -1.421875 11.734375 6.484375 
Q 5.515625 14.40625 5.515625 27.296875 
Q 5.515625 40.1875 11.734375 48.09375 
Q 17.96875 56 27.875 56 
Q 33.9375 56 38.25 53.625 
Q 42.578125 51.265625 45.40625 46.390625 
z
M 14.796875 27.296875 
Q 14.796875 17.390625 18.875 11.75 
Q 22.953125 6.109375 30.078125 6.109375 
Q 37.203125 6.109375 41.296875 11.75 
Q 45.40625 17.390625 45.40625 27.296875 
Q 45.40625 37.203125 41.296875 42.84375 
Q 37.203125 48.484375 30.078125 48.484375 
Q 22.953125 48.484375 18.875 42.84375 
Q 14.796875 37.203125 14.796875 27.296875 
z
" id="DejaVuSans-100"/>
      <path d="M 30.609375 48.390625 
Q 23.390625 48.390625 19.1875 42.75 
Q 14.984375 37.109375 14.984375 27.296875 
Q 14.984375 17.484375 19.15625 11.84375 
Q 23.34375 6.203125 30.609375 6.203125 
Q 37.796875 6.203125 41.984375 11.859375 
Q 46.1875 17.53125 46.1875 27.296875 
Q 46.1875 37.015625 41.984375 42.703125 
Q 37.796875 48.390625 30.609375 48.390625 
z
M 30.609375 56 
Q 42.328125 56 49.015625 48.375 
Q 55.71875 40.765625 55.71875 27.296875 
Q 55.71875 13.875 49.015625 6.21875 
Q 42.328125 -1.421875 30.609375 -1.421875 
Q 18.84375 -1.421875 12.171875 6.21875 
Q 5.515625 13.875 5.515625 27.296875 
Q 5.515625 40.765625 12.171875 48.375 
Q 18.84375 56 30.609375 56 
z
M 37.40625 79.984375 
L 47.125 79.984375 
L 31.21875 61.625 
L 23.734375 61.625 
z
" id="DejaVuSans-243"/>
     </defs>
     <g transform="translate(62.74375 44.558437)scale(0.1 -0.1)">
      <use transform="translate(0 0.015625)" xlink:href="#DejaVuSans-Oblique-68"/>
      <use transform="translate(77.001953 0.015625)" xlink:href="#DejaVuSans-Oblique-97"/>
      <use transform="translate(138.28125 0.015625)" xlink:href="#DejaVuSans-Oblique-116"/>
      <use transform="translate(177.490234 0.015625)" xlink:href="#DejaVuSans-Oblique-97"/>
      <use transform="translate(238.769531 0.015625)" xlink:href="#DejaVuSans-Oblique-115"/>
      <use transform="translate(290.869141 0.015625)" xlink:href="#DejaVuSans-Oblique-101"/>
      <use transform="translate(352.392578 0.015625)" xlink:href="#DejaVuSans-Oblique-116"/>
      <use transform="translate(391.601562 0.015625)" xlink:href="#DejaVuSans-32"/>
      <use transform="translate(423.388672 0.015625)" xlink:href="#DejaVuSans-118"/>
      <use transform="translate(482.568359 0.015625)" xlink:href="#DejaVuSans-97"/>
      <use transform="translate(543.847656 0.015625)" xlink:href="#DejaVuSans-108"/>
      <use transform="translate(571.630859 0.015625)" xlink:href="#DejaVuSans-105"/>
      <use transform="translate(599.414062 0.015625)" xlink:href="#DejaVuSans-100"/>
      <use transform="translate(662.890625 0.015625)" xlink:href="#DejaVuSans-97"/>
      <use transform="translate(724.169922 0.015625)" xlink:href="#DejaVuSans-99"/>
      <use transform="translate(779.150391 0.015625)" xlink:href="#DejaVuSans-105"/>
      <use transform="translate(806.933594 0.015625)" xlink:href="#DejaVuSans-243"/>
      <use transform="translate(868.115234 0.015625)" xlink:href="#DejaVuSans-110"/>
     </g>
    </g>
    <g id="PathCollection_3">
     <defs>
      <path d="M 0 3 
C 0.795609 3 1.55874 2.683901 2.12132 2.12132 
C 2.683901 1.55874 3 0.795609 3 0 
C 3 -0.795609 2.683901 -1.55874 2.12132 -2.12132 
C 1.55874 -2.683901 0.795609 -3 0 -3 
C -0.795609 -3 -1.55874 -2.683901 -2.12132 -2.12132 
C -2.683901 -1.55874 -3 -0.795609 -3 0 
C -3 0.795609 -2.683901 1.55874 -2.12132 2.12132 
C -1.55874 2.683901 -0.795609 3 0 3 
z
" id="md7b20a2d0c" style="stroke:#93c4d2;"/>
     </defs>
     <g>
      <use style="fill:#93c4d2;stroke:#93c4d2;" x="95.8" xlink:href="#md7b20a2d0c" y="56.611562"/>
     </g>
    </g>
    <g id="text_16">
     <!-- 128 -->
     <g transform="translate(113.8 59.236562)scale(0.1 -0.1)">
      <use xlink:href="#DejaVuSans-49"/>
      <use x="63.623047" xlink:href="#DejaVuSans-50"/>
      <use x="127.246094" xlink:href="#DejaVuSans-56"/>
     </g>
    </g>
   </g>
  </g>
 </g>
 <defs>
  <clipPath id="p9770203af3">
   <rect height="276.48375" width="396.25625" x="53.74375" y="27.96"/>
  </clipPath>
 </defs>
</svg>
